<svg version="1.1" xmlns="http://www.w3.org/2000/svg" xmlns:xlink="http://www.w3.org/1999/xlink" width="180.16668" height="92.28336" viewBox="0,0,180.16668,92.28336"><g transform="translate(-149.91666,-134.33332)"><g data-paper-data="{&quot;isPaintingLayer&quot;:true}" fill-rule="nonzero" stroke-linejoin="miter" stroke-miterlimit="10" stroke-dasharray="" stroke-dashoffset="0" style="mix-blend-mode: normal"><path d="M250.91666,177.82329c0,-13.06519 7.94389,-23.65662 17.74317,-23.65662c4.42198,0 5.9028,-0.28742 10.49767,1.39097c2.50979,0.91676 4.31829,4.67362 5.50077,9.09906c1.18864,4.44849 1.74473,9.57255 1.74473,13.16659c0,5.55923 1.29081,16.38577 -2.77033,19.04205c-6.29728,4.11886 -9.34314,4.61458 -14.97284,4.61458c-9.79928,0 -17.74317,-10.59143 -17.74317,-23.65662z" data-paper-data="{&quot;index&quot;:null}" fill="#ffb273" stroke="none" stroke-width="0" stroke-linecap="butt"/><path d="M260.75001,224.36669l-6.4,-0.03334l0.23333,-4.33334c0,0 0.25399,-1.42598 0.21978,-2.48666c-0.06078,-1.88416 -0.55312,-7.84668 -0.55312,-7.84668" fill="none" stroke="#ffd799" stroke-width="2.5" stroke-linecap="round"/><path d="M242.3809,158.95832c0,-7.73199 6.26801,-14 14,-14c7.73199,0 14,6.26801 14,14c0,7.73199 -6.26801,14 -14,14c-7.73199,0 -14,-6.26801 -14,-14z" fill="#ffd799" stroke="#ffb578" stroke-width="0" stroke-linecap="butt"/><path d="M243.85001,225.36669l-6.4,-0.03334l0.13333,-4.33334c0,0 0.55399,-1.62598 0.51978,-2.68666c-0.06078,-1.88416 -0.85312,-7.64668 -0.85312,-7.64668" fill="none" stroke="#ffd799" stroke-width="2.5" stroke-linecap="round"/><path d="M211.34016,193.47991c-5.62969,0 -8.67555,-0.4224 -14.97284,-3.93212c-4.06115,-2.26343 -2.77033,-11.48882 -2.77033,-16.22589c0,-3.06251 0.55609,-7.42877 1.74473,-11.21936c1.18248,-3.77095 2.99098,-6.97221 5.50077,-7.75339c4.59487,-1.43017 6.07569,-1.18526 10.49767,-1.18526c9.79928,0 17.74317,9.02505 17.74317,20.158c0,11.13296 -7.94389,20.158 -17.74317,20.158z" data-paper-data="{&quot;index&quot;:null}" fill="#ffb172" stroke="none" stroke-width="0" stroke-linecap="butt"/><path d="M187.26516,157.32352c7.33659,-2.05247 14.33951,0.05631 15.64145,4.71012c1.30194,4.65381 -3.5901,10.09033 -10.92669,12.14281c-7.33659,2.05247 -14.3395,-0.05632 -15.64145,-4.71013c-1.30194,-4.65381 3.59009,-10.09033 10.92668,-12.1428z" data-paper-data="{&quot;index&quot;:null}" fill="#e4aa7b" stroke="none" stroke-width="0" stroke-linecap="butt"/><path d="M186.61223,166.19498c7.49609,-2.59481 14.89872,-0.86809 16.53423,3.85672c1.63551,4.72481 -3.11543,10.65853 -10.61152,13.25334c-7.49609,2.59481 -14.89872,0.86809 -16.53423,-3.85672c-1.63551,-4.72481 3.11543,-10.65853 10.61152,-13.25333z" data-paper-data="{&quot;index&quot;:null}" fill="#ffae6d" stroke="none" stroke-width="0" stroke-linecap="butt"/><path d="M182.74999,166.35642c0,5.23396 -4.17867,9.47692 -9.33333,9.47692c-5.15466,0 -9.33333,-4.24296 -9.33333,-9.47692c0,-5.23396 4.17867,-9.47692 9.33333,-9.47692c5.15466,0 9.33333,4.24296 9.33333,9.47692z" data-paper-data="{&quot;index&quot;:null}" fill="#ffb172" stroke="none" stroke-width="0" stroke-linecap="butt"/><path d="M157.72017,169.36313c5.14347,-4.74164 11.63963,-6.06179 14.50957,-2.94863c2.86994,3.11316 1.02688,9.48073 -4.1166,14.22237c-5.14347,4.74164 -11.63963,6.06179 -14.50958,2.94863c-2.86994,-3.11316 -1.02687,-9.48073 4.1166,-14.22237z" data-paper-data="{&quot;index&quot;:null}" fill="#ffb172" stroke="none" stroke-width="0" stroke-linecap="butt"/><path d="M167.74999,189.50001c0,5.15466 -3.99212,9.33334 -8.91666,9.33334c-2.34453,0 -3.31105,-3.61382 -4.90272,-5.16251c-1.75152,-1.70424 -4.01395,-1.47026 -4.01395,-4.17083c0,-5.15466 3.99213,-9.33333 8.91667,-9.33333c4.92454,0 8.91666,4.17867 8.91666,9.33333z" data-paper-data="{&quot;index&quot;:null}" fill="#ffca9e" stroke="none" stroke-width="0" stroke-linecap="butt"/><path d="M216.94756,158.95832c0,-7.73199 6.26801,-14 14,-14c7.73199,0 14,6.26801 14,14c0,7.73199 -6.26801,14 -14,14c-7.73199,0 -14,-6.26801 -14,-14z" fill="#ffd799" stroke="#ffb578" stroke-width="0" stroke-linecap="butt"/><path d="M218.73194,206.45832v-50c0,0 15.94577,5.16666 24.26823,5.16666c8.34416,0 25.73177,-5.16666 25.73177,-5.16666v50z" data-paper-data="{&quot;index&quot;:null}" fill="#ffd799" stroke="#ffb578" stroke-width="0" stroke-linecap="butt"/><path d="M244.99393,149.48057l5.14725,-5.14725l7.5,0.75l6.25,2l5,4.5l1.5,5v3.5l-2,3.25l0.1769,43.44643l-45.42857,0.28572l-3.49832,0.01785l0.25,-40l-2.75,-9.5l4.5,-9.25l4.5,-2.25l7,-2l5.75,2l2.77344,3.69792" fill="none" stroke="#ffb578" stroke-width="7.5" stroke-linecap="round"/><g stroke="none" stroke-width="0" stroke-linecap="butt"><path d="M229.7429,159.90834c0,-3.36893 -0.47946,-6.1 2.88948,-6.1c3.36893,0 9.31052,2.73107 9.31052,6.1c0,3.36893 -2.73107,6.1 -6.1,6.1c-3.36893,0 -6.1,-2.73107 -6.1,-6.1z" fill="#ffffff"/><path d="M233.27448,160.06884c0,-2.0391 1.65301,-3.6921 3.6921,-3.6921c2.0391,0 3.6921,1.65301 3.6921,3.6921c0,2.0391 -1.65301,3.6921 -3.6921,3.6921c-2.0391,0 -3.6921,-1.65301 -3.6921,-3.6921z" fill="#e1ad84"/></g><path d="M255.21936,165.60832c-3.36893,0 -6.1,-2.73107 -6.1,-6.1c0,-3.36893 5.94159,-6.1 9.31052,-6.1c3.36894,0 2.88948,2.73107 2.88948,6.1c0,3.36893 -2.73107,6.1 -6.1,6.1z" data-paper-data="{&quot;index&quot;:null}" fill="#ffffff" stroke="none" stroke-width="0" stroke-linecap="butt"/><path d="M253.87448,159.66884c0,-2.0391 1.65301,-3.6921 3.6921,-3.6921c2.0391,0 3.6921,1.65301 3.6921,3.6921c0,2.0391 -1.65301,3.6921 -3.6921,3.6921c-2.0391,0 -3.6921,-1.65301 -3.6921,-3.6921z" fill="#e1ad84" stroke="none" stroke-width="0" stroke-linecap="butt"/><path d="M237.46605,157.70832c0,-0.54653 0.44306,-0.98959 0.98959,-0.98959c0.54653,0 0.98958,0.44306 0.98958,0.98959c0,0.54653 -0.44305,0.98959 -0.98958,0.98959c-0.54653,0 -0.98959,-0.44306 -0.98959,-0.98959z" fill="#e4eaeb" stroke="none" stroke-width="NaN" stroke-linecap="butt"/><path d="M234.34105,162.08332c0,-0.54653 0.44306,-0.98959 0.98959,-0.98959c0.54653,0 0.98958,0.44306 0.98958,0.98959c0,0.54653 -0.44305,0.98959 -0.98958,0.98959c-0.54653,0 -0.98959,-0.44306 -0.98959,-0.98959z" fill="#e3eaeb" stroke="none" stroke-width="NaN" stroke-linecap="butt"/><path d="M254.84105,161.33332c0,-0.54653 0.44306,-0.98959 0.98959,-0.98959c0.54653,0 0.98958,0.44306 0.98958,0.98959c0,0.54653 -0.44305,0.98959 -0.98958,0.98959c-0.54653,0 -0.98959,-0.44306 -0.98959,-0.98959z" fill="#e3eaeb" stroke="none" stroke-width="NaN" stroke-linecap="butt"/><path d="M258.09105,157.27082c0,-0.51201 0.44306,-0.92709 0.98959,-0.92709c0.54653,0 0.98958,0.41508 0.98958,0.92709c0,0.51201 -0.44305,0.92709 -0.98958,0.92709c-0.54653,0 -0.98959,-0.41508 -0.98959,-0.92709z" fill="#e4eaeb" stroke="none" stroke-width="NaN" stroke-linecap="butt"/><path d="M258.11449,189.30083c-1.84789,0.7543 -8.08197,0.2777 -12.13684,0.2777c-1.82238,0 -6.65586,1.87008 -8.16186,1.68819c-3.42486,-0.41367 -2.64195,-3.20844 -2.64195,-4.15454c0,-1.36213 4.83703,-2.46636 10.80381,-2.46636c5.96678,0 10.80381,1.10423 10.80381,2.46636c0,0.43647 2.20433,1.83299 1.33303,2.18865z" fill="#aa8b6d" stroke="none" stroke-width="0" stroke-linecap="butt"/><path d="M255.52751,188.33346c-0.81472,-0.12796 -2.21472,-0.55798 -3.80737,-0.92446c-1.34153,-0.30869 -2.81975,-0.5723 -4.19998,-0.5723c-3.08365,0 -5.51718,-0.5872 -8.73906,0.4456c-0.18545,0.05945 -0.40114,0.1246 -0.6327,0.19007c-1.2199,0.34491 -2.88026,0.69855 -2.88026,0.27224c0,-0.74783 1.15755,-2.32275 4.39718,-2.49164c1.88637,-0.09834 4.40393,-0.23212 6.4935,-0.23212c5.17938,0 9.98313,1.01622 9.98313,2.2698c0,0.52293 0.4598,1.21153 -0.61444,1.04281z" fill="#ffffff" stroke="#ffd799" stroke-width="0" stroke-linecap="butt"/><path d="M245.25,134.33332l3.5,6.16666l-3.33334,-5.66666" fill="none" stroke="none" stroke-width="0" stroke-linecap="round"/><path d="M243.58333,134.99998l4.66667,5.83334" fill="none" stroke="none" stroke-width="0" stroke-linecap="round"/><path d="M303.66151,170.46635c-1.30194,4.65381 -8.30485,6.7626 -15.64144,4.71013c-7.33659,-2.05247 -12.22863,-7.489 -10.92669,-12.14281c1.30194,-4.65381 8.30486,-6.76259 15.64145,-4.71012c7.33659,2.05247 12.22863,7.48899 10.92669,12.1428z" fill="#ffb273" stroke="none" stroke-width="0" stroke-linecap="butt"/><path d="M303.99928,180.4483c-1.63551,4.72481 -9.03814,6.45153 -16.53423,3.85672c-7.4961,-2.59481 -12.24703,-8.52853 -10.61152,-13.25334c1.63551,-4.72481 9.03814,-6.45153 16.53423,-3.85672c7.4961,2.59481 12.24703,8.52853 10.61152,13.25333z" fill="#ffb273" stroke="none" stroke-width="0" stroke-linecap="butt"/><path d="M306.58333,157.87947c5.15466,0 9.33334,4.24296 9.33334,9.47692c0,5.23396 -4.17868,9.47692 -9.33334,9.47692c-5.15466,0 -9.33333,-4.24296 -9.33333,-9.47692c0,-5.23396 4.17867,-9.47692 9.33333,-9.47692z" fill="#ffb172" stroke="none" stroke-width="0" stroke-linecap="butt"/><path d="M326.39642,184.58549c-2.86994,3.11316 -9.3661,1.793 -14.50958,-2.94863c-5.14348,-4.74164 -6.98654,-11.10922 -4.1166,-14.22237c2.86994,-3.11316 9.3661,-1.793 14.50958,2.94863c5.14348,4.74164 6.98654,11.10922 4.1166,14.22237z" fill="#ffb273" stroke="none" stroke-width="0" stroke-linecap="butt"/><path d="M312.25001,190.50001c0,-5.15466 3.99213,-9.33333 8.91667,-9.33333c4.92454,0 8.91666,4.17867 8.91666,9.33333c0,2.70057 -2.26242,2.46659 -4.01395,4.17083c-1.59167,1.54869 -2.55819,5.16251 -4.90272,5.16251c-4.92454,0 -8.91667,-4.17868 -8.91667,-9.33334z" fill="#ffd4b1" stroke="none" stroke-width="0" stroke-linecap="butt"/></g></g></svg>